HIERARCHY
ROOT hip
{
	OFFSET 0.000000 0.000000 0.000000 
	CHANNELS 6 Xposition Yposition Zposition Xrotation Zrotation Yrotation
	JOINT abdomen
	{
		OFFSET 0.000000 3.402643 0.000000 
		CHANNELS 3 Xrotation Zrotation Yrotation
		JOINT chest
		{
			OFFSET 0.000000 8.438565 -0.680529 
			CHANNELS 3 Xrotation Zrotation Yrotation
			JOINT neck
			{
				OFFSET 0.000000 10.207942 -0.272212 
				CHANNELS 3 Xrotation Zrotation Yrotation
				JOINT head
				{
					OFFSET 0.000000 3.130431 0.000000 
					CHANNELS 3 Xrotation Zrotation Yrotation
					End Site
					{
						OFFSET 0.000000 3.130435 0.000000 
					}
				}
			}
			JOINT lCollar
			{
				OFFSET 3.470700 6.669187 -0.816635 
				CHANNELS 3 Yrotation Zrotation Xrotation
				JOINT lShldr
				{
					OFFSET 3.198488 0.000000 0.000000 
					CHANNELS 3 Zrotation Yrotation Xrotation
					JOINT lForeArm
					{
						OFFSET 10.139888 0.000000 0.000000 
						CHANNELS 3 Yrotation Zrotation Xrotation
						JOINT lHand
						{
							OFFSET 8.370511 0.000000 0.000000 
							CHANNELS 3 Zrotation Yrotation Xrotation
							End Site
							{
								OFFSET 4.083176 0.000000 0.000000 
							}
						}
					}
				}
			}
			JOINT rCollar
			{
				OFFSET -3.470700 6.669187 -0.816635 
				CHANNELS 3 Yrotation Zrotation Xrotation
				JOINT rShldr
				{
					OFFSET -3.198488 0.000000 0.000000 
					CHANNELS 3 Zrotation Yrotation Xrotation
					JOINT rForeArm
					{
						OFFSET -10.139888 0.000000 0.000000 
						CHANNELS 3 Yrotation Zrotation Xrotation
						JOINT rHand
						{
							OFFSET -8.370511 0.000000 0.000000 
							CHANNELS 3 Zrotation Yrotation Xrotation
							End Site
							{
								OFFSET -4.083176 0.000000 0.000000 
							}
						}
					}
				}
			}
		}
	}
	JOINT lThigh
	{
		OFFSET 5.308129 -1.633274 1.361059 
		CHANNELS 3 Xrotation Zrotation Yrotation
		JOINT lShin
		{
			OFFSET -2.041588 -20.007561 0.000000 
			CHANNELS 3 Xrotation Zrotation Yrotation
			JOINT lFoot
			{
				OFFSET 0.000000 -19.190928 -1.224953 
				CHANNELS 3 Xrotation Yrotation Zrotation
				End Site
				{
					OFFSET 0.000000 -2.449906 4.627600 
				}
			}
		}
	}
	JOINT rThigh
	{
		OFFSET -5.308129 -1.633274 1.361059 
		CHANNELS 3 Xrotation Zrotation Yrotation
		JOINT rShin
		{
			OFFSET 2.041588 -20.007561 0.000000 
			CHANNELS 3 Xrotation Zrotation Yrotation
			JOINT rFoot
			{
				OFFSET 0.000000 -19.190928 -1.224953 
				CHANNELS 3 Xrotation Yrotation Zrotation
				End Site
				{
					OFFSET 0.000000 -2.449906 4.627600 
				}
			}
		}
	}
}
MOTION
Frames: 9
Frame Time: 0.033333
-36.911049 36.874737 133.976959 -19.628906 -23.535158 138.291016 45.314880 -14.980545 -6.844740 -39.091801 11.230470 -0.888672 51.553619 8.070152 2.616707 -96.787109 6.738281 -16.209793 2.000000 -2.000000 0.000000 -58.261719 49.208981 -49.777763 -114.849617 1.489140 -2.362115 39.750469 1.910308 -2.033902 -2.000000 2.000000 0.000000 63.437500 -31.757811 -48.867191 98.955917 -0.913510 -3.178618 -10.548781 -53.359661 -27.194748 -88.497253 2.821532 1.261304 69.328438 -2.350868 -5.723531 4.965648 1.167587 5.008782 -85.023979 -9.607482 -19.179129 64.042076 2.303512 4.829849 -9.265365 -24.391256 -27.725283 
-37.430229 36.030842 134.406967 -18.251953 -21.992186 137.203369 47.705822 -15.000278 -7.321352 -39.111328 11.748047 -0.634765 51.553619 8.070152 2.616707 -95.917969 7.236328 -16.424553 2.000000 -2.000000 0.000000 -55.126953 47.382816 -48.371716 -115.551804 1.315028 -2.664643 40.058426 1.755670 -0.807575 -2.000000 2.000000 0.000000 63.896488 -31.582029 -50.210190 100.179276 -0.898923 -2.923699 -9.663041 -53.223614 -27.949327 -88.565392 3.065861 0.518073 69.871765 -2.409395 -5.346010 4.348311 1.493888 4.650898 -85.404724 -8.826251 -18.175144 64.568146 2.216685 4.896172 -7.307539 -25.408617 -26.570429 
-37.941978 35.320358 134.830917 -16.572264 -20.654295 136.207489 49.687035 -14.927872 -7.622616 -39.121094 12.265626 -0.369019 51.553619 8.070152 2.616707 -94.326172 7.509766 -15.936223 2.000000 -2.000000 0.000000 -52.080078 45.537109 -46.594589 -116.252808 1.290308 -2.584979 40.831036 1.178933 0.535810 -2.000000 2.000000 0.000000 63.115238 -29.951172 -50.874016 101.065872 -0.883135 -3.196423 -9.789989 -52.853714 -27.172344 -87.883400 3.104856 0.177743 70.069160 -2.604928 -5.359599 4.134546 1.469146 4.658884 -85.241486 -7.997283 -17.612387 64.744278 2.216782 4.900360 -5.764013 -25.980371 -25.886066 
-38.445721 34.664047 135.251205 -15.107421 -19.062498 135.211655 51.338951 -14.883935 -7.908344 -38.955078 12.617188 -0.214843 51.553619 8.070152 2.616707 -91.845703 7.656250 -15.039063 2.000000 -2.000000 0.000000 -49.472660 43.876953 -44.638676 -116.969063 1.624493 -2.389569 41.666340 0.008918 2.023860 -2.000000 2.000000 0.000000 61.826168 -27.988283 -50.771484 101.777100 -0.896265 -3.138665 -9.654588 -53.203999 -26.259542 -87.362358 3.270667 0.181898 70.240845 -2.575973 -5.480205 5.484262 2.470826 4.926377 -84.585815 -7.088919 -16.153505 64.396072 2.402209 4.801723 -2.475552 -26.685480 -23.309050 
-38.940960 34.226265 135.666641 -13.486329 -17.490234 134.326172 52.255112 -14.716063 -8.129462 -38.779301 12.802735 -0.214843 51.553619 8.070152 2.616707 -87.763672 7.392578 -13.583985 2.000000 -2.000000 0.000000 -47.148441 41.933594 -43.837891 -117.307137 1.457520 -2.233150 42.234756 -0.545589 3.220034 -2.000000 2.000000 0.000000 59.345703 -24.941406 -49.984589 102.140541 -1.232423 -3.245898 -9.138939 -52.984253 -24.453327 -86.520546 3.466522 -0.131127 70.052879 -2.379648 -5.206841 7.174824 2.910762 5.295101 -83.683846 -6.111171 -15.832575 63.689056 2.304687 4.841416 -0.029655 -26.910929 -22.421099 
-39.426964 33.973846 136.080841 -11.884765 -15.849609 133.307877 52.368019 -14.385012 -8.007885 -38.408203 12.636718 -0.447083 51.553619 8.070152 2.616707 -81.748047 6.728515 -11.367188 2.000000 -2.000000 0.000000 -46.298828 40.117184 -44.593315 -117.318611 1.287478 -2.633706 43.039688 -1.383695 4.249674 -2.000000 2.000000 0.000000 57.089844 -22.187502 -48.574219 101.979240 -1.222860 -3.411572 -9.883940 -52.708149 -22.146357 -85.112831 3.827659 -0.108857 69.542198 -2.662781 -5.313247 8.685915 3.456577 5.706624 -82.484276 -5.487002 -14.912636 62.831791 2.558455 4.719804 2.732828 -26.891808 -19.997454 
-39.903263 33.881405 136.492645 -10.332031 -14.042969 132.548843 51.746254 -13.734253 -7.871419 -37.861328 12.294923 -0.810547 51.553619 8.070152 2.616707 -74.375000 5.341796 -8.818360 2.000000 -2.000000 0.000000 -45.644527 38.037109 -45.003746 -116.954056 1.284522 -2.516193 43.789604 -1.558959 4.978715 -2.000000 2.000000 0.000000 55.371094 -18.837889 -46.826168 101.964737 -1.251922 -3.247022 -11.810078 -53.002922 -19.525393 -83.510483 4.335118 0.139627 68.971214 -2.379927 -5.857052 10.033384 4.295952 5.848220 -80.710579 -5.468107 -15.253006 61.772846 2.480288 4.744571 5.636031 -25.755106 -19.642017 
-40.369225 33.808647 136.903214 -8.847656 -12.353517 131.767593 50.401394 -13.015758 -7.556290 -37.500000 11.787110 -1.355427 51.553619 8.070152 2.616707 -66.015633 3.359375 -6.074220 2.000000 -2.000000 0.000000 -45.380863 35.683594 -45.273438 -116.272644 1.629831 -2.634063 44.480949 -1.970765 5.691483 -2.000000 2.000000 0.000000 54.687496 -14.814453 -44.990234 101.618507 -1.280433 -3.092436 -15.611687 -52.978718 -15.701305 -82.130943 4.345233 -0.012818 68.638313 -2.437928 -5.867064 11.236983 4.999996 6.324033 -78.950439 -5.468002 -15.173538 61.049957 2.557189 4.682687 8.785725 -24.094208 -18.566626 
-40.824139 33.648666 137.314987 -7.333984 -10.654297 131.209122 49.106972 -12.323631 -7.531147 -36.767578 11.455078 -1.873061 51.553619 8.070152 2.616707 -57.753906 0.654297 -3.457031 2.000000 -2.000000 0.000000 -45.107418 32.480469 -44.975224 -115.026093 1.311635 -2.723115 45.170959 -1.629691 5.642279 -2.000000 2.000000 0.000000 54.482422 -10.048829 -42.783203 101.073196 -1.121626 -3.132142 -21.366987 -52.904205 -10.438179 -80.575348 4.042546 -0.509806 68.149529 -2.760077 -5.360098 12.359241 5.797523 6.791173 -77.761345 -5.888374 -14.778243 60.753147 2.753654 4.470040 12.367749 -21.753658 -17.225990 
